<?xml version="1.0" encoding="utf-8"?>
<!-- Generator: Adobe Illustrator 27.5.0, SVG Export Plug-In . SVG Version: 6.00 Build 0)  -->
<svg version="1.1" xmlns="http://www.w3.org/2000/svg" xmlns:xlink="http://www.w3.org/1999/xlink" x="0px" y="0px"
	 viewBox="0 0 500 500" style="enable-background:new 0 0 500 500;" xml:space="preserve">
<g id="Background_Complete">
	<g>
		<rect y="382.398" style="fill:#EBEBEB;" width="500" height="0.25"/>
		<rect x="416.779" y="398.494" style="fill:#EBEBEB;" width="33.122" height="0.25"/>
		<rect x="322.527" y="401.208" style="fill:#EBEBEB;" width="8.693" height="0.25"/>
		<rect x="396.586" y="389.208" style="fill:#EBEBEB;" width="19.192" height="0.25"/>
		<rect x="52.459" y="390.888" style="fill:#EBEBEB;" width="43.193" height="0.25"/>
		<rect x="104.556" y="390.888" style="fill:#EBEBEB;" width="6.333" height="0.25"/>
		<rect x="131.471" y="395.111" style="fill:#EBEBEB;" width="93.676" height="0.25"/>
		<path style="fill:#EBEBEB;" d="M237.014,337.8H43.915c-3.147,0-5.708-2.561-5.708-5.708V60.66c0-3.147,2.561-5.708,5.708-5.708
			h193.099c3.146,0,5.707,2.561,5.707,5.708v271.432C242.721,335.239,240.16,337.8,237.014,337.8z M43.915,55.203
			c-3.01,0-5.458,2.448-5.458,5.458v271.432c0,3.01,2.448,5.458,5.458,5.458h193.099c3.009,0,5.457-2.448,5.457-5.458V60.66
			c0-3.009-2.448-5.458-5.457-5.458H43.915z"/>
		<path style="fill:#EBEBEB;" d="M453.31,337.8H260.212c-3.147,0-5.707-2.561-5.707-5.708V60.66c0-3.147,2.561-5.708,5.707-5.708
			H453.31c3.148,0,5.708,2.561,5.708,5.708v271.432C459.019,335.239,456.458,337.8,453.31,337.8z M260.212,55.203
			c-3.009,0-5.457,2.448-5.457,5.458v271.432c0,3.01,2.448,5.458,5.457,5.458H453.31c3.01,0,5.458-2.448,5.458-5.458V60.66
			c0-3.009-2.448-5.458-5.458-5.458H260.212z"/>
	</g>
	<g>
		<g>
			<polygon style="fill:#E0E0E0;" points="118.936,318.387 118.936,332.586 112.937,336.947 140.94,336.947 131.995,333.631 
				131.995,319.377 			"/>
			<path style="fill:#E0E0E0;" d="M69.473,336.538v44.73h124.996v-44.73H69.473z M192.217,354.056H94.381v-14.62h97.837V354.056z"/>
			<path style="fill:#EBEBEB;" d="M91.371,336.538v44.73h103.098v-44.73H91.371z M192.217,354.056H94.381v-14.62h97.837V354.056z"/>
			<rect x="172.054" y="339.439" style="fill:#E0E0E0;" width="20.165" height="14.617"/>
			<rect x="94.381" y="346.748" style="fill:#E0E0E0;" width="24.947" height="7.308"/>
			<rect x="121.168" y="349.715" style="fill:#E0E0E0;" width="18.781" height="4.341"/>
			<rect x="144.29" y="345.177" style="fill:#E0E0E0;" width="17.892" height="8.88"/>
			<polygon style="fill:#E0E0E0;" points="112.113,357.24 111.577,358.986 104.396,358.986 103.861,357.24 94.381,357.24 
				94.381,376.646 125.846,376.646 125.846,357.24 			"/>
			<polygon style="fill:#E0E0E0;" points="149.506,357.24 148.97,358.986 141.789,358.986 141.253,357.24 127.521,357.24 
				127.521,376.646 158.986,376.646 158.986,357.24 			"/>
			<polygon style="fill:#E0E0E0;" points="178.393,357.24 177.857,358.986 170.676,358.986 170.14,357.24 160.66,357.24 
				160.66,376.646 192.125,376.646 192.125,357.24 			"/>
			<g>
				<path style="fill:#E0E0E0;" d="M176.188,326.871h-92.99c-1.95,0-3.53-1.581-3.53-3.53v-53.394c0-1.95,1.581-3.53,3.53-3.53
					h92.99c1.95,0,3.531,1.581,3.531,3.53v53.394C179.719,325.29,178.138,326.871,176.188,326.871z"/>
				<path style="fill:#E6E6E6;" d="M178.54,326.871H85.55c-1.95,0-3.53-1.581-3.53-3.53v-53.394c0-1.95,1.581-3.53,3.53-3.53h92.99
					c1.95,0,3.53,1.581,3.53,3.53v53.394C182.07,325.29,180.49,326.871,178.54,326.871z"/>
				
					<rect x="104.757" y="249.558" transform="matrix(-1.836970e-16 1 -1 -1.836970e-16 428.6886 164.5988)" style="fill:#F0F0F0;" width="54.576" height="94.172"/>
			</g>
		</g>
		<g>
			<path style="fill:#E6E6E6;" d="M310.872,261.178h89.536c9.712,0,17.585,7.873,17.585,17.585v69.917H293.288v-69.917
				C293.288,269.051,301.16,261.178,310.872,261.178z"/>
			<path style="fill:#E0E0E0;" d="M266.815,312.998h16.023c5.771,0,10.449,4.678,10.449,10.45v57.821h-36.922v-57.821
				C256.366,317.677,261.044,312.998,266.815,312.998z"/>
			<path style="fill:#EBEBEB;" d="M266.815,312.998h0.339c5.771,0,10.449,4.678,10.449,10.45v57.821h-21.238v-57.821
				C256.366,317.677,261.044,312.998,266.815,312.998z"/>
			<rect x="282.075" y="354.708" style="fill:#E6E6E6;" width="122.877" height="26.56"/>
			<path style="fill:#F5F5F5;" d="M281.901,330.417h118.503c5.867,0,10.624,4.756,10.624,10.624v6.618
				c0,5.867-4.756,10.624-10.624,10.624H281.901c-5.867,0-10.624-4.756-10.624-10.624v-6.618
				C271.277,335.174,276.033,330.417,281.901,330.417z"/>
			<path style="fill:#E0E0E0;enable-background:new    ;" d="M385.511,330.417h14.698c5.867,0,10.624,4.756,10.624,10.624v6.618
				c0,5.867-4.757,10.624-10.624,10.624h-14.698c-5.867,0-10.624-4.756-10.624-10.624v-6.618
				C374.887,335.174,379.644,330.417,385.511,330.417z"/>
			<path style="fill:#E0E0E0;" d="M401.794,312.998h16.023c5.771,0,10.45,4.678,10.45,10.45v57.821h-36.922v-57.821
				C391.345,317.677,396.023,312.998,401.794,312.998z"/>
			<path style="fill:#F0F0F0;" d="M401.794,312.998h0.338c5.771,0,10.45,4.678,10.45,10.45v57.821h-21.238v-57.821
				C391.345,317.677,396.023,312.998,401.794,312.998z"/>
		</g>
		<g>
			
				<rect x="306.063" y="106.378" transform="matrix(-1 -1.224647e-16 1.224647e-16 -1 730.7589 335.3386)" style="fill:#EBEBEB;" width="118.634" height="122.582"/>
			
				<rect x="301.918" y="106.378" transform="matrix(-1 -1.224647e-16 1.224647e-16 -1 722.4704 335.3386)" style="fill:#F0F0F0;" width="118.634" height="122.582"/>
			<rect x="305.062" y="109.284" style="fill:#E0E0E0;" width="112.498" height="116.828"/>
			<rect x="307.873" y="109.283" style="fill:#F5F5F5;" width="109.689" height="116.826"/>
			
				<rect x="361.583" y="109.284" transform="matrix(-1 -1.224647e-16 1.224647e-16 -1 725.3927 335.3958)" style="fill:#EBEBEB;" width="2.227" height="116.828"/>
			<polygon style="fill:#FFFFFF;" points="348.802,109.283 317.538,226.108 314.537,226.108 345.801,109.283 			"/>
			
				<rect x="360.628" y="107.482" transform="matrix(-1 -1.224647e-16 1.224647e-16 -1 723.1655 335.8327)" style="fill:#F0F0F0;" width="1.909" height="120.869"/>
			<polygon style="fill:#FFFFFF;" points="337.455,109.283 307.873,219.842 307.873,159.071 321.193,109.283 			"/>
			<polygon style="fill:#FFFFFF;" points="417.562,119.884 417.562,131.098 392.134,226.108 389.133,226.108 			"/>
			<polygon style="fill:#FFFFFF;" points="417.562,142.528 417.562,203.298 411.462,226.108 395.2,226.108 			"/>
		</g>
		<g>
			
				<rect x="97.662" y="113.363" transform="matrix(-1 -1.224647e-16 1.224647e-16 -1 267.1528 314.1267)" style="fill:#E6E6E6;" width="71.828" height="87.401"/>
			<polygon style="fill:#E0E0E0;" points="114.096,179.115 151.843,142.017 111.006,135.278 			"/>
			<polygon style="fill:#F0F0F0;" points="150.931,170.321 152.8,141.872 124.381,148.853 122.316,170.62 			"/>
			
				<ellipse transform="matrix(0.7071 -0.7071 0.7071 0.7071 -58.8117 118.5967)" style="fill:#FAFAFA;" cx="113.753" cy="130.29" rx="11.473" ry="11.473"/>
			<path style="fill:#E0E0E0;" d="M147.22,180.464c0-3.073,2.491-5.564,5.564-5.564s5.564,2.491,5.564,5.564
				c0,3.073-2.491,5.564-5.564,5.564S147.22,183.537,147.22,180.464z"/>
			<polygon style="fill:#F5F5F5;" points="151.463,190.243 135.395,180.464 148.902,169.336 			"/>
			<rect x="129.327" y="124.48" style="fill:#E0E0E0;" width="3.158" height="69.79"/>
			<rect x="158.66" y="124.48" style="fill:#EBEBEB;" width="4.086" height="66.703"/>
			<rect x="104.873" y="170.62" style="fill:#EBEBEB;" width="20.878" height="20.878"/>
		</g>
	</g>
</g>
<g id="Background_Simple" style="display:none;">
	<g style="display:inline;">
		<path style="fill:#407BFF;" d="M91.115,108.806c27.919-59.449,127.059-51.062,165.317-9.255
			c38.258,41.806,50.696,68.599,85.208,52.983c34.512-15.616,78.518-11.44,81.042,38.164s-37.913,108.263-102.09,125.615
			c-64.177,17.352-64.161,78.759-149.1,66.368c-46.31-6.756-47.365-56.86-40.825-98.301
			C137.207,242.939,58.736,177.749,91.115,108.806z"/>
		<path style="opacity:0.9;fill:#FFFFFF;" d="M91.115,108.806c27.919-59.449,127.059-51.062,165.317-9.255
			c38.258,41.806,50.696,68.599,85.208,52.983c34.512-15.616,78.518-11.44,81.042,38.164s-37.913,108.263-102.09,125.615
			c-64.177,17.352-64.161,78.759-149.1,66.368c-46.31-6.756-47.365-56.86-40.825-98.301
			C137.207,242.939,58.736,177.749,91.115,108.806z"/>
	</g>
</g>
<g id="Shadow_1_">
	<ellipse id="_x3C_Path_x3E__359_" style="fill:#F5F5F5;" cx="250" cy="416.238" rx="193.889" ry="11.323"/>
</g>
<g id="Device">
	<g>
		<path style="fill:#263238;" d="M411.993,390.992H195.091V240.31c0-2.357,1.911-4.268,4.268-4.268h208.366
			c2.357,0,4.268,1.911,4.268,4.268V390.992z"/>
		<rect x="199.362" y="245.609" style="fill:#407BFF;" width="208.36" height="133.172"/>
		<g>
			<circle style="opacity:0.2;fill:#FFFFFF;enable-background:new    ;" cx="301.644" cy="241.2" r="2.077"/>
			<circle style="opacity:0.2;fill:#FFFFFF;enable-background:new    ;" cx="305.952" cy="241.2" r="1.564"/>
		</g>
		<path style="opacity:0.2;fill:#FFFFFF;enable-background:new    ;" d="M304.392,381.508c-0.269-0.089-0.552-0.149-0.851-0.149
			c-1.506,0-2.727,1.221-2.727,2.727c0,1.506,1.221,2.727,2.727,2.727c1.506,0,2.727-1.221,2.727-2.727
			c0-0.051-0.012-0.099-0.015-0.149C305.213,383.593,304.455,382.648,304.392,381.508z"/>
		<g>
			<path style="fill:#263238;" d="M428.157,388.878v1.96c0,0.53-0.15,1.04-0.41,1.47c-0.36,0.61-0.94,1.08-1.65,1.29l-15.11,4.46
				c-1.87,0.56-3.82,0.84-5.78,0.84h-203.33c-1.95,0-3.9-0.28-5.77-0.84l-15.11-4.46c-0.72-0.21-1.3-0.68-1.66-1.29
				c-0.26-0.43-0.41-0.94-0.41-1.47v-1.96H428.157z"/>
			<path style="opacity:0.2;fill:#FFFFFF;enable-background:new    ;" d="M428.157,388.878v1.96c0,0.53-0.15,1.04-0.41,1.47
				c-0.36,0.61-0.94,1.08-1.65,1.29l-15.11,4.46c-1.87,0.56-3.82,0.84-5.78,0.84h-203.33c-1.95,0-3.9-0.28-5.77-0.84l-15.11-4.46
				c-0.72-0.21-1.3-0.68-1.66-1.29c-0.26-0.43-0.41-0.94-0.41-1.47v-1.96H428.157z"/>
			<path style="opacity:0.2;fill:#FFFFFF;enable-background:new    ;" d="M428.156,388.878v1.96c0,0.53-0.15,1.04-0.41,1.47h-248.41
				c-0.26-0.43-0.41-0.94-0.41-1.47v-1.96H428.156z"/>
			<path style="opacity:0.2;enable-background:new    ;" d="M321.077,388.878v0.86c0,0.47-0.38,0.85-0.85,0.85h-33.36
				c-0.48,0-0.86-0.38-0.86-0.85v-0.86H321.077z"/>
		</g>
		<path style="opacity:0.1;fill:#FFFFFF;enable-background:new    ;" d="M407.722,245.609c0,0-28.812,114.374-208.36,133.172
			V245.609H407.722z"/>
	</g>
</g>
<g id="Window_3">
	<g>
		<g>
			<path style="fill:#407BFF;" d="M387.984,193.472v125.26l-20.86,20.86h-82.46c-1.77,0-3.21-1.44-3.21-3.22v-142.9
				c0-1.78,1.44-3.22,3.21-3.22h100.1C386.534,190.252,387.984,191.693,387.984,193.472z"/>
			<path style="opacity:0.6;fill:#FFFFFF;enable-background:new    ;" d="M387.984,198.939v119.79l-20.86,20.86h-82.46
				c-1.77,0-3.21-1.44-3.21-3.22v-137.43H387.984z"/>
			<path style="opacity:0.6;fill:#FFFFFF;enable-background:new    ;" d="M385.198,194.231c0,0.858-0.696,1.554-1.554,1.554
				c-0.858,0-1.554-0.696-1.554-1.554c0-0.858,0.696-1.554,1.554-1.554C384.503,192.678,385.198,193.373,385.198,194.231z"/>
			<path style="opacity:0.6;fill:#FFFFFF;enable-background:new    ;" d="M379.264,194.231c0,0.858-0.696,1.554-1.554,1.554
				s-1.554-0.696-1.554-1.554c0-0.858,0.696-1.554,1.554-1.554S379.264,193.373,379.264,194.231z"/>
			<path style="opacity:0.6;fill:#FFFFFF;enable-background:new    ;" d="M373.33,194.231c0,0.858-0.696,1.554-1.554,1.554
				c-0.858,0-1.554-0.696-1.554-1.554c0-0.858,0.696-1.554,1.554-1.554C372.635,192.678,373.33,193.373,373.33,194.231z"/>
		</g>
		<g>
			<path style="fill:#407BFF;" d="M346.204,208.594h-57.102c-0.552,0-1-0.448-1-1c0-0.552,0.448-1,1-1h57.102c0.552,0,1,0.448,1,1
				C347.204,208.146,346.756,208.594,346.204,208.594z"/>
			<path style="fill:#407BFF;" d="M330.063,214.057h-40.961c-0.552,0-1-0.448-1-1c0-0.552,0.448-1,1-1h40.961c0.552,0,1,0.448,1,1
				C331.063,213.609,330.615,214.057,330.063,214.057z"/>
		</g>
		<g>
			<path style="fill:#407BFF;" d="M374.326,298.521h-73.019c-0.552,0-1-0.447-1-1s0.448-1,1-1h73.019c0.552,0,1,0.447,1,1
				S374.878,298.521,374.326,298.521z"/>
			<path style="fill:#407BFF;" d="M362.122,320.372h-73.02c-0.552,0-1-0.447-1-1c0-0.553,0.448-1,1-1h73.02c0.552,0,1,0.447,1,1
				C363.122,319.925,362.674,320.372,362.122,320.372z"/>
			<path style="fill:#407BFF;" d="M374.326,303.983h-85.224c-0.552,0-1-0.447-1-1s0.448-1,1-1h85.224c0.552,0,1,0.447,1,1
				S374.878,303.983,374.326,303.983z"/>
			<path style="fill:#407BFF;" d="M374.326,309.446h-85.224c-0.552,0-1-0.447-1-1s0.448-1,1-1h85.224c0.552,0,1,0.447,1,1
				S374.878,309.446,374.326,309.446z"/>
			<path style="fill:#407BFF;" d="M374.326,314.909h-85.224c-0.552,0-1-0.447-1-1c0-0.553,0.448-1,1-1h85.224c0.552,0,1,0.447,1,1
				C375.326,314.462,374.878,314.909,374.326,314.909z"/>
		</g>
		<polygon style="opacity:0.5;fill:#407BFF;" points="387.984,318.729 367.124,339.589 367.124,318.729 		"/>
		<rect x="382.091" y="198.939" style="opacity:0.4;enable-background:new    ;" width="5.893" height="119.79"/>
		<path style="fill:#407BFF;" d="M385.038,261.53L385.038,261.53c-1.198,0-2.17-0.971-2.17-2.17v-12.236
			c0-1.198,0.971-2.17,2.17-2.17l0,0c1.198,0,2.17,0.971,2.17,2.17v12.236C387.207,260.559,386.236,261.53,385.038,261.53z"/>
		<g>
			<path style="fill:#407BFF;" d="M374.326,268.521h-73.019c-0.552,0-1-0.447-1-1s0.448-1,1-1h73.019c0.552,0,1,0.447,1,1
				S374.878,268.521,374.326,268.521z"/>
			<path style="fill:#407BFF;" d="M362.122,290.372h-73.02c-0.552,0-1-0.447-1-1c0-0.553,0.448-1,1-1h73.02c0.552,0,1,0.447,1,1
				C363.122,289.925,362.674,290.372,362.122,290.372z"/>
			<path style="fill:#407BFF;" d="M374.326,273.983h-85.224c-0.552,0-1-0.447-1-1s0.448-1,1-1h85.224c0.552,0,1,0.447,1,1
				S374.878,273.983,374.326,273.983z"/>
			<path style="fill:#407BFF;" d="M374.326,279.446h-85.224c-0.552,0-1-0.447-1-1s0.448-1,1-1h85.224c0.552,0,1,0.447,1,1
				S374.878,279.446,374.326,279.446z"/>
			<path style="fill:#407BFF;" d="M374.326,284.909h-85.224c-0.552,0-1-0.447-1-1c0-0.553,0.448-1,1-1h85.224c0.552,0,1,0.447,1,1
				C375.326,284.462,374.878,284.909,374.326,284.909z"/>
		</g>
		<rect x="288.844" y="220.572" style="fill:#407BFF;" width="85.483" height="31.895"/>
		<polygon style="opacity:0.2;enable-background:new    ;" points="288.844,247.349 291.167,247.349 291.167,241.55 293.846,241.55 
			293.846,230.104 297.586,230.104 297.586,237.148 302.729,237.148 302.729,246.521 308.861,246.521 308.861,239.99 
			313.929,239.99 317.284,236.635 317.284,228.86 319.326,228.86 319.326,239.99 324.487,239.99 324.487,243.95 329.828,243.95 
			329.828,223.748 331.305,222.271 331.305,227.812 334.719,227.812 334.719,230.301 337.993,233.576 337.993,239.487 
			342.685,239.487 342.685,234.81 354.949,234.81 354.949,231.317 357.718,231.317 357.718,225.225 358.707,225.225 358.707,234.81 
			360.272,234.81 363.8,231.282 367.124,231.282 367.124,228.093 368.795,228.093 368.795,231.317 370.971,231.317 370.971,244.543 
			373.33,244.543 373.33,237.943 374.326,238.004 374.326,220.572 288.844,220.572 		"/>
		<g>
			<path style="fill:#407BFF;" d="M374.326,257.521h-23.019c-0.552,0-1-0.447-1-1s0.448-1,1-1h23.019c0.552,0,1,0.447,1,1
				S374.878,257.521,374.326,257.521z"/>
		</g>
		<path style="opacity:0.2;enable-background:new    ;" d="M322.704,190.252v103.52l-15.74,15.74h-25.51v-116.04
			c0-1.78,1.44-3.22,3.21-3.22H322.704z"/>
		<path style="opacity:0.4;fill:#FFFFFF;enable-background:new    ;" d="M385.038,261.53L385.038,261.53
			c-1.198,0-2.17-0.971-2.17-2.17v-12.236c0-1.198,0.971-2.17,2.17-2.17l0,0c1.198,0,2.17,0.971,2.17,2.17v12.236
			C387.207,260.559,386.236,261.53,385.038,261.53z"/>
	</g>
</g>
<g id="Window_1">
	<g>
		<g>
			<path style="fill:#407BFF;" d="M261.744,209.082v125.26l-20.86,20.86h-82.46c-1.77,0-3.21-1.44-3.21-3.22v-142.9
				c0-1.78,1.44-3.22,3.21-3.22h100.1C260.294,205.862,261.744,207.302,261.744,209.082z"/>
			<path style="opacity:0.6;fill:#FFFFFF;enable-background:new    ;" d="M261.741,214.557v119.79l-20.86,20.86h-82.46
				c-1.77,0-3.21-1.44-3.21-3.22v-137.43H261.741z"/>
			<path style="opacity:0.6;fill:#FFFFFF;enable-background:new    ;" d="M258.956,209.849c0,0.858-0.696,1.554-1.554,1.554
				c-0.858,0-1.554-0.696-1.554-1.554c0-0.858,0.696-1.554,1.554-1.554C258.26,208.295,258.956,208.991,258.956,209.849z"/>
			<path style="opacity:0.6;fill:#FFFFFF;enable-background:new    ;" d="M253.022,209.849c0,0.858-0.696,1.554-1.554,1.554
				c-0.858,0-1.554-0.696-1.554-1.554c0-0.858,0.696-1.554,1.554-1.554C252.326,208.295,253.022,208.991,253.022,209.849z"/>
			<path style="opacity:0.6;fill:#FFFFFF;enable-background:new    ;" d="M247.087,209.849c0,0.858-0.696,1.554-1.554,1.554
				c-0.858,0-1.554-0.696-1.554-1.554c0-0.858,0.696-1.554,1.554-1.554C246.392,208.295,247.087,208.991,247.087,209.849z"/>
		</g>
		<g>
			<path style="fill:#407BFF;" d="M180.596,224.749h-17.736c-0.552,0-1-0.448-1-1c0-0.552,0.448-1,1-1h17.736c0.552,0,1,0.448,1,1
				C181.596,224.301,181.148,224.749,180.596,224.749z"/>
			<path style="fill:#407BFF;" d="M188.961,230.211h-26.102c-0.552,0-1-0.448-1-1c0-0.552,0.448-1,1-1h26.102c0.552,0,1,0.448,1,1
				C189.961,229.764,189.514,230.211,188.961,230.211z"/>
			<path style="fill:#407BFF;" d="M180.891,235.675h-18.031c-0.552,0-1-0.447-1-1c0-0.553,0.448-1,1-1h18.031c0.552,0,1,0.447,1,1
				C181.891,235.227,181.443,235.675,180.891,235.675z"/>
		</g>
		<g>
			<path style="fill:#407BFF;" d="M248.083,325.138h-73.02c-0.552,0-1-0.447-1-1s0.448-1,1-1h73.02c0.552,0,1,0.447,1,1
				S248.636,325.138,248.083,325.138z"/>
			<path style="fill:#407BFF;" d="M208.083,330.601h-45.224c-0.552,0-1-0.447-1-1c0-0.553,0.448-1,1-1h45.224c0.552,0,1,0.447,1,1
				C209.083,330.153,208.636,330.601,208.083,330.601z"/>
		</g>
		<polygon style="opacity:0.5;fill:#407BFF;" points="261.741,334.347 240.881,355.207 240.881,334.347 		"/>
		<rect x="255.848" y="214.557" style="opacity:0.4;enable-background:new    ;" width="5.893" height="119.79"/>
		<path style="fill:#407BFF;" d="M258.795,326.148L258.795,326.148c-1.198,0-2.17-0.971-2.17-2.17v-12.236
			c0-1.198,0.971-2.17,2.17-2.17l0,0c1.198,0,2.17,0.971,2.17,2.17v12.236C260.964,325.176,259.993,326.148,258.795,326.148z"/>
		<g>
			<path style="fill:#407BFF;" d="M248.083,224.749h-13.736c-0.552,0-1-0.448-1-1c0-0.552,0.448-1,1-1h13.736c0.552,0,1,0.448,1,1
				C249.083,224.301,248.636,224.749,248.083,224.749z"/>
			<path style="fill:#407BFF;" d="M248.083,230.211h-7.102c-0.552,0-1-0.448-1-1c0-0.552,0.448-1,1-1h7.102c0.552,0,1,0.448,1,1
				C249.083,229.764,248.636,230.211,248.083,230.211z"/>
		</g>
		<g>
			<path style="fill:#407BFF;" d="M248.083,250.138h-73.02c-0.552,0-1-0.447-1-1c0-0.553,0.448-1,1-1h73.02c0.552,0,1,0.447,1,1
				C249.083,249.69,248.636,250.138,248.083,250.138z"/>
			<path style="fill:#407BFF;" d="M248.083,255.601h-85.224c-0.552,0-1-0.447-1-1s0.448-1,1-1h85.224c0.552,0,1,0.447,1,1
				S248.636,255.601,248.083,255.601z"/>
			<path style="fill:#407BFF;" d="M198.083,261.064h-35.224c-0.552,0-1-0.447-1-1c0-0.553,0.448-1,1-1h35.224c0.552,0,1,0.447,1,1
				C199.083,260.616,198.636,261.064,198.083,261.064z"/>
		</g>
		<g>
			<rect x="176.999" y="268.312" style="opacity:0.7;fill:#407BFF;" width="33.575" height="8.995"/>
			<rect x="176.999" y="279.308" style="opacity:0.3;fill:#407BFF;" width="15.214" height="33.229"/>
			<rect x="212.574" y="279.308" style="opacity:0.3;fill:#407BFF;" width="17.475" height="33.229"/>
			<rect x="212.574" y="268.312" style="opacity:0.7;fill:#407BFF;" width="35.51" height="8.995"/>
			<rect x="232.048" y="279.308" style="opacity:0.3;fill:#407BFF;" width="16.035" height="33.229"/>
			<rect x="162.859" y="279.308" style="opacity:0.5;fill:#407BFF;" width="12.139" height="33.229"/>
			<rect x="162.859" y="268.312" style="fill:#407BFF;" width="12.139" height="8.995"/>
			<rect x="194.213" y="279.308" style="opacity:0.3;fill:#407BFF;" width="16.361" height="33.229"/>
		</g>
		<path style="opacity:0.4;fill:#FFFFFF;enable-background:new    ;" d="M258.795,326.148L258.795,326.148
			c-1.198,0-2.17-0.971-2.17-2.17v-12.236c0-1.198,0.971-2.17,2.17-2.17l0,0c1.198,0,2.17,0.971,2.17,2.17v12.236
			C260.964,325.176,259.993,326.148,258.795,326.148z"/>
		<path style="opacity:0.2;enable-background:new    ;" d="M261.744,209.082v104.2h-60.33c-1.77,0-3.21-1.44-3.21-3.22v-104.2h60.32
			C260.294,205.862,261.744,207.302,261.744,209.082z"/>
	</g>
</g>
<g id="Window_2">
	<g>
		<g>
			<path style="fill:#407BFF;" d="M314.706,152.298v125.26l-20.86,20.86h-82.46c-1.77,0-3.21-1.44-3.21-3.22v-142.9
				c0-1.78,1.44-3.22,3.21-3.22h100.1C313.256,149.078,314.706,150.518,314.706,152.298z"/>
			<path style="opacity:0.6;fill:#FFFFFF;enable-background:new    ;" d="M314.706,157.768v119.79l-20.86,20.86h-82.46
				c-1.77,0-3.21-1.44-3.21-3.22v-137.43H314.706z"/>
			<circle style="opacity:0.6;fill:#FFFFFF;enable-background:new    ;" cx="310.366" cy="153.06" r="1.554"/>
			<circle style="opacity:0.6;fill:#FFFFFF;enable-background:new    ;" cx="304.432" cy="153.06" r="1.554"/>
			<path style="opacity:0.6;fill:#FFFFFF;enable-background:new    ;" d="M300.052,153.06c0,0.858-0.696,1.554-1.554,1.554
				c-0.858,0-1.554-0.696-1.554-1.554c0-0.858,0.696-1.554,1.554-1.554C299.357,151.506,300.052,152.202,300.052,153.06z"/>
		</g>
		<g>
			<path style="fill:#407BFF;" d="M268.621,167.96h-20.37c-0.552,0-1-0.448-1-1c0-0.552,0.448-1,1-1h20.37c0.552,0,1,0.448,1,1
				C269.621,167.512,269.173,167.96,268.621,167.96z"/>
			<path style="fill:#407BFF;" d="M276.987,173.423h-37.102c-0.552,0-1-0.448-1-1c0-0.552,0.448-1,1-1h37.102c0.552,0,1,0.448,1,1
				C277.987,172.975,277.54,173.423,276.987,173.423z"/>
			<path style="fill:#407BFF;" d="M268.917,178.886h-20.961c-0.552,0-1-0.448-1-1c0-0.552,0.448-1,1-1h20.961c0.552,0,1,0.448,1,1
				C269.917,178.439,269.469,178.886,268.917,178.886z"/>
		</g>
		<g>
			<path style="fill:#407BFF;" d="M301.048,193.349h-73.02c-0.552,0-1-0.448-1-1c0-0.552,0.448-1,1-1h73.02c0.552,0,1,0.448,1,1
				C302.048,192.901,301.601,193.349,301.048,193.349z"/>
			<path style="fill:#407BFF;" d="M288.843,215.202h-73.019c-0.552,0-1-0.448-1-1c0-0.552,0.448-1,1-1h73.019c0.552,0,1,0.448,1,1
				C289.843,214.754,289.396,215.202,288.843,215.202z"/>
			<path style="fill:#407BFF;" d="M301.048,198.812h-85.224c-0.552,0-1-0.448-1-1c0-0.552,0.448-1,1-1h85.224c0.552,0,1,0.448,1,1
				C302.048,198.364,301.601,198.812,301.048,198.812z"/>
			<path style="fill:#407BFF;" d="M301.048,204.275h-85.224c-0.552,0-1-0.448-1-1c0-0.552,0.448-1,1-1h85.224c0.552,0,1,0.448,1,1
				C302.048,203.828,301.601,204.275,301.048,204.275z"/>
			<path style="fill:#407BFF;" d="M301.048,209.738h-85.224c-0.552,0-1-0.448-1-1c0-0.552,0.448-1,1-1h85.224c0.552,0,1,0.448,1,1
				C302.048,209.29,301.601,209.738,301.048,209.738z"/>
		</g>
		<g>
			<path style="fill:#407BFF;" d="M301.048,248.349h-73.02c-0.552,0-1-0.447-1-1c0-0.553,0.448-1,1-1h73.02c0.552,0,1,0.447,1,1
				C302.048,247.901,301.601,248.349,301.048,248.349z"/>
			<path style="fill:#407BFF;" d="M288.843,270.201h-73.019c-0.552,0-1-0.447-1-1c0-0.553,0.448-1,1-1h73.019c0.552,0,1,0.447,1,1
				C289.843,269.754,289.396,270.201,288.843,270.201z"/>
			<path style="fill:#407BFF;" d="M301.048,253.813h-85.224c-0.552,0-1-0.447-1-1s0.448-1,1-1h85.224c0.552,0,1,0.447,1,1
				S301.601,253.813,301.048,253.813z"/>
			<path style="fill:#407BFF;" d="M301.048,259.275h-85.224c-0.552,0-1-0.447-1-1s0.448-1,1-1h85.224c0.552,0,1,0.447,1,1
				S301.601,259.275,301.048,259.275z"/>
			<path style="fill:#407BFF;" d="M301.048,264.738h-85.224c-0.552,0-1-0.447-1-1c0-0.553,0.448-1,1-1h85.224c0.552,0,1,0.447,1,1
				C302.048,264.291,301.601,264.738,301.048,264.738z"/>
		</g>
		<rect x="290.818" y="165.762" style="fill:#407BFF;" width="10.231" height="13.621"/>
		<circle style="fill:#407BFF;" cx="221.495" cy="171.433" r="5.671"/>
		<g>
			<path style="fill:#407BFF;" d="M215.499,222.349c0,0.66,0.535,1.195,1.195,1.195s1.195-0.535,1.195-1.195
				c0-0.66-0.535-1.195-1.195-1.195S215.499,221.689,215.499,222.349z"/>
			<path style="fill:#407BFF;" d="M215.499,227.812c0,0.66,0.535,1.195,1.195,1.195s1.195-0.535,1.195-1.195
				c0-0.66-0.535-1.195-1.195-1.195S215.499,227.152,215.499,227.812z"/>
			<path style="fill:#407BFF;" d="M215.499,233.275c0,0.66,0.535,1.195,1.195,1.195s1.195-0.535,1.195-1.195
				s-0.535-1.195-1.195-1.195S215.499,232.615,215.499,233.275z"/>
			<path style="fill:#407BFF;" d="M215.499,238.738c0,0.66,0.535,1.195,1.195,1.195s1.195-0.535,1.195-1.195
				s-0.535-1.195-1.195-1.195S215.499,238.078,215.499,238.738z"/>
			<path style="fill:#407BFF;" d="M233.843,223.349h-13.019c-0.552,0-1-0.448-1-1c0-0.552,0.448-1,1-1h13.019c0.552,0,1,0.448,1,1
				C234.843,222.901,234.395,223.349,233.843,223.349z"/>
			<path style="fill:#407BFF;" d="M246.048,228.812h-25.224c-0.552,0-1-0.448-1-1c0-0.552,0.448-1,1-1h25.224c0.552,0,1,0.448,1,1
				C247.048,228.364,246.601,228.812,246.048,228.812z"/>
			<path style="fill:#407BFF;" d="M231.048,234.275h-10.224c-0.552,0-1-0.447-1-1c0-0.553,0.448-1,1-1h10.224c0.552,0,1,0.447,1,1
				C232.048,233.828,231.601,234.275,231.048,234.275z"/>
			<path style="fill:#407BFF;" d="M242.048,239.738h-21.224c-0.552,0-1-0.447-1-1c0-0.553,0.448-1,1-1h21.224c0.552,0,1,0.447,1,1
				C243.048,239.291,242.601,239.738,242.048,239.738z"/>
		</g>
		<polygon style="opacity:0.5;fill:#407BFF;" points="314.706,277.558 293.846,298.418 293.846,277.558 		"/>
		<polygon style="opacity:0.2;enable-background:new    ;" points="301.048,165.762 290.818,179.383 301.048,179.383 		"/>
		<rect x="218.182" y="168.12" style="opacity:0.2;enable-background:new    ;" width="6.626" height="6.626"/>
		<rect x="308.813" y="157.768" style="opacity:0.4;enable-background:new    ;" width="5.893" height="119.79"/>
		<path style="fill:#407BFF;" d="M311.759,180.359L311.759,180.359c-1.198,0-2.17-0.971-2.17-2.17v-12.236
			c0-1.198,0.971-2.17,2.17-2.17l0,0c1.198,0,2.17,0.971,2.17,2.17v12.236C313.929,179.388,312.957,180.359,311.759,180.359z"/>
		<path style="opacity:0.4;fill:#FFFFFF;enable-background:new    ;" d="M311.759,180.359L311.759,180.359
			c-1.198,0-2.17-0.971-2.17-2.17v-12.236c0-1.198,0.971-2.17,2.17-2.17l0,0c1.198,0,2.17,0.971,2.17,2.17v12.236
			C313.929,179.388,312.957,180.359,311.759,180.359z"/>
	</g>
</g>
<g id="Speech_bubble">
	<g>
		<path style="fill:#407BFF;" d="M83.831,208.932h34.916c2.797,0,5.065,2.268,5.065,5.065v33.941c0,2.797-2.268,5.065-5.065,5.065
			h-14.174l1.523,10.225l-7.009-10.225H83.831c-2.797,0-5.065-2.268-5.065-5.065v-33.941
			C78.767,211.2,81.034,208.932,83.831,208.932z"/>
		<path style="opacity:0.6;fill:#FFFFFF;enable-background:new    ;" d="M83.831,208.932h34.916c2.797,0,5.065,2.268,5.065,5.065
			v33.941c0,2.797-2.268,5.065-5.065,5.065h-14.174l1.523,10.225l-7.009-10.225H83.831c-2.797,0-5.065-2.268-5.065-5.065v-33.941
			C78.767,211.2,81.034,208.932,83.831,208.932z"/>
		<g>
			<path style="fill:#F5F5F5;" d="M98.411,223.909v2.707l1.394,0.131c0.188,0.908,0.548,1.751,1.04,2.501l-0.895,1.081l1.914,1.914
				l1.082-0.896c0.749,0.492,1.593,0.852,2.501,1.04l0.131,1.394h2.707l0.131-1.394c0.907-0.188,1.751-0.548,2.501-1.04l1.082,0.896
				l1.914-1.914l-0.896-1.081c0.492-0.749,0.851-1.593,1.04-2.501l1.394-0.131v-2.707l-1.394-0.131
				c-0.188-0.908-0.548-1.751-1.04-2.501l0.896-1.082l-1.914-1.914l-1.082,0.895c-0.749-0.492-1.593-0.851-2.501-1.04l-0.131-1.394
				h-2.707l-0.131,1.394c-0.907,0.188-1.751,0.548-2.501,1.04l-1.082-0.895l-1.914,1.914l0.895,1.081
				c-0.492,0.749-0.851,1.593-1.04,2.501L98.411,223.909z M106.93,221.598c2.024,0,3.665,1.641,3.665,3.665
				c0,2.024-1.641,3.665-3.665,3.665c-2.024,0-3.665-1.641-3.665-3.665C103.266,223.239,104.907,221.598,106.93,221.598z"/>
			<path style="fill:#F5F5F5;" d="M100.16,243.662c0.711-0.148,1.372-0.429,1.96-0.815l0.847,0.702l1.5-1.5l-0.702-0.848
				c0.385-0.587,0.667-1.248,0.815-1.959l1.092-0.103v-2.121l-1.092-0.103c-0.148-0.711-0.429-1.372-0.815-1.96l0.702-0.848
				l-1.5-1.5l-0.847,0.702c-0.587-0.385-1.249-0.667-1.96-0.815l-0.103-1.092h-2.121l-0.103,1.092
				c-0.711,0.148-1.372,0.429-1.959,0.815l-0.848-0.702l-1.5,1.5l0.702,0.848c-0.385,0.587-0.667,1.248-0.815,1.96l-1.092,0.103
				v2.121l1.092,0.103c0.147,0.711,0.429,1.372,0.815,1.96l-0.702,0.848l1.5,1.5l0.848-0.702c0.587,0.385,1.248,0.667,1.959,0.815
				l0.103,1.092h2.121L100.16,243.662z M96.124,238.079c0-1.586,1.286-2.872,2.872-2.872c1.586,0,2.872,1.286,2.872,2.872
				c0,1.586-1.286,2.872-2.872,2.872C97.41,240.951,96.124,239.665,96.124,238.079z"/>
			<path style="fill:#F5F5F5;" d="M94.639,231.696l0.59,0.711l1.472-1.005l-0.447-0.809c0.41-0.425,0.745-0.926,0.978-1.49
				l0.918,0.085l0.33-1.751l-0.885-0.255c-0.011-0.61-0.141-1.199-0.367-1.744l0.711-0.59l-1.005-1.472l-0.809,0.447
				c-0.425-0.41-0.927-0.745-1.49-0.978l0.085-0.918l-1.751-0.33l-0.255,0.885c-0.61,0.011-1.2,0.141-1.744,0.367l-0.59-0.711
				l-1.472,1.005l0.447,0.809c-0.409,0.424-0.745,0.926-0.978,1.49l-0.917-0.085l-0.33,1.751l0.885,0.255
				c0.011,0.61,0.141,1.199,0.367,1.744l-0.711,0.59l1.005,1.472l0.809-0.447c0.424,0.41,0.926,0.745,1.491,0.978l-0.085,0.917
				l1.751,0.33l0.255-0.886C93.504,232.052,94.094,231.922,94.639,231.696z M90.433,226.826c0.247-1.309,1.509-2.17,2.818-1.923
				c1.309,0.247,2.17,1.508,1.923,2.818c-0.247,1.309-1.509,2.17-2.818,1.923C91.047,229.396,90.186,228.135,90.433,226.826z"/>
		</g>
	</g>
</g>
<g id="Character">
	<g>
		<g>
			<path style="fill:#EBB376;" d="M141.358,333.116c0,0,2.464,22.149,3.263,24.788c0.799,2.639,12.073,16.736,12.073,16.736
				l-3.199,1.669c0,0-12.037-12.338-13.91-15.997c-1.873-3.659-4.762-22.757-4.762-22.757L141.358,333.116z"/>
			<path style="fill:#263238;" d="M139.109,323.265c4.154,2.197,5.512,32.922,5.512,32.922l2.095,3.238l-6.377,4.542
				c0,0-2.715-4.484-3.983-7.912c-1.268-3.428-4.276-20.308-4.276-20.308L139.109,323.265z"/>
			<path style="opacity:0.1;fill:#FFFFFF;enable-background:new    ;" d="M139.109,323.265c4.154,2.197,5.512,32.922,5.512,32.922
				l2.095,3.238l-6.377,4.542c0,0-2.715-4.484-3.983-7.912c-1.268-3.428-4.276-20.308-4.276-20.308L139.109,323.265z"/>
			<polygon style="fill:#407BFF;" points="139.398,363.967 146.716,358.165 148.293,361.457 141.541,366.275 			"/>
			<polygon style="opacity:0.4;fill:#FFFFFF;enable-background:new    ;" points="139.398,363.967 146.716,358.165 148.293,361.457 
				141.541,366.275 			"/>
		</g>
		<g>
			<path style="fill:#407BFF;" d="M122.755,362.88l7.474,11.835c14.827-3.453,62.357-10.704,68.194,5.604
				c7.254,20.266-45.17,36.421-74.184,37.41c-29.014,0.989-52.294-15.529-33.952-57.824L122.755,362.88z"/>
			<path style="opacity:0.2;enable-background:new    ;" d="M122.755,362.88l7.474,11.835c14.827-3.453,62.357-10.704,68.194,5.604
				c7.254,20.266-45.17,36.421-74.184,37.41c-29.014,0.989-52.294-15.529-33.952-57.824L122.755,362.88z"/>
		</g>
		<path style="fill:#407BFF;" d="M190.021,408.967c-0.066,0.041-0.151,0.037-0.213-0.011c-0.058-0.041-0.078-0.115-0.051-0.18
			c0.095-0.322,1.056-3.112,2.027-3.405c0.21-0.051,0.43,0.014,0.579,0.169c0.275,0.228,0.407,0.585,0.345,0.937
			c-0.157,0.521-0.476,0.98-0.909,1.31C191.247,408.239,190.652,408.635,190.021,408.967z M190.27,408.431
			c0.904-0.397,1.637-1.103,2.067-1.992c0.051-0.242-0.046-0.492-0.246-0.639c-0.055-0.067-0.145-0.094-0.228-0.066
			c-0.082,0.028-0.158,0.072-0.224,0.13C191.031,406.63,190.568,407.5,190.27,408.431z"/>
		<path style="fill:#407BFF;" d="M189.969,409.003c-0.066,0.024-0.139,0.003-0.181-0.053c-0.09-0.078-1.43-1.769-1.209-2.91
			c0.053-0.285,0.22-0.538,0.462-0.699c0.209-0.201,0.53-0.232,0.773-0.072c0.701,0.494,0.616,2.757,0.271,3.614l-0.024,0.086
			C190.034,408.988,190.002,409.001,189.969,409.003z M189.208,405.688c-0.121,0.105-0.203,0.248-0.232,0.406
			c-0.139,0.722,0.534,1.805,0.897,2.324c0.221-0.967,0.149-2.554-0.262-2.839c-0.045-0.023-0.129-0.09-0.336,0.056L189.208,405.688
			L189.208,405.688z"/>
		<path style="fill:#407BFF;" d="M139.017,413.721c0.039-0.068,0.115-0.105,0.192-0.094c0.069,0.008,0.124,0.063,0.131,0.133
			c0.074,0.328,0.583,3.234-0.126,3.961c-0.159,0.147-0.383,0.197-0.589,0.133c-0.35-0.065-0.639-0.314-0.754-0.652
			c-0.115-0.532-0.059-1.088,0.161-1.587C138.296,414.952,138.626,414.318,139.017,413.721z M139.058,414.31
			c-0.599,0.785-0.898,1.758-0.844,2.744c0.074,0.236,0.279,0.408,0.524,0.439c0.081,0.033,0.173,0.013,0.232-0.052
			c0.059-0.064,0.104-0.14,0.132-0.222C139.264,416.256,139.249,415.27,139.058,414.31z"/>
		<polygon style="fill:#EBB376;" points="158.007,399.04 146.071,403.292 140.339,405.333 141.809,411.606 147.361,410.424 
			160.92,407.534 		"/>
		<path style="fill:#263238;" d="M143.372,411.902l-1.005-7.401c-0.056-0.412-0.442-0.697-0.853-0.629l-3.651,0.608
			c0,0-4.97,0.467-5.957,1.741c-2.886,3.724-1.083,20.151,0.84,20.729c0.704,0.212,1.448-0.754,1.754-1.421
			c0.972-2.115,2.685-7.653,3.518-9.408c0.973-2.052,3.642-3.057,4.842-3.416C143.207,412.602,143.421,412.262,143.372,411.902z"/>
		<path style="fill:#407BFF;" d="M139.045,413.665c0.045-0.053,0.12-0.069,0.184-0.041c0.117,0.024,2.107,0.855,2.467,1.961
			c0.092,0.275,0.067,0.577-0.066,0.836c-0.085,0.277-0.352,0.459-0.642,0.438c-0.852-0.093-1.873-2.114-1.987-3.031l-0.02-0.087
			C138.994,413.71,139.017,413.683,139.045,413.665z M141.316,416.197c0.055-0.151,0.057-0.315,0.007-0.468
			c-0.228-0.699-1.341-1.322-1.91-1.6c0.274,0.952,1.105,2.307,1.603,2.357c0.051-0.001,0.156,0.016,0.267-0.212L141.316,416.197
			L141.316,416.197z"/>
		<polygon style="opacity:0.2;enable-background:new    ;" points="158.007,399.04 146.071,403.292 147.361,410.424 160.92,407.534 
					"/>
		<g>
			<polygon style="fill:#407BFF;" points="149.475,411.496 152.909,411.743 150.611,399.932 146.716,402.087 			"/>
			<polygon style="opacity:0.6;fill:#FFFFFF;enable-background:new    ;" points="149.475,411.496 152.909,411.743 150.611,399.932 
				146.716,402.087 			"/>
		</g>
		<path style="opacity:0.2;enable-background:new    ;" d="M99.68,365.602l17.879,19.824c0,0,19.768-0.44,43.77,11.292
			c0,0,25.756-10.639,28.122-19.477c3.098-11.578-59.222-2.527-59.222-2.527L99.68,365.602z"/>
		<g>
			<path style="fill:#263238;" d="M183.541,379.602v2.938c0,0.754-0.888,1.063-1.632,1.063h-58.707
				c-0.754,0-1.661-0.309-1.661-1.063v-2.938H183.541z"/>
			<path style="opacity:0.4;fill:#FFFFFF;enable-background:new    ;" d="M183.541,379.602v2.938c0,0.754-0.888,1.063-1.632,1.063
				h-58.707c-0.754,0-1.661-0.309-1.661-1.063v-2.938H183.541z"/>
			<path style="opacity:0.2;enable-background:new    ;" d="M183.541,379.602v2.938c0,0.754-0.888,1.063-1.632,1.063h-38.721
				c-0.753,0-1.647-0.309-1.647-1.063v-2.938H183.541z"/>
			<path style="fill:#263238;" d="M193.363,349.101l-6.988,31.699c-0.228,1.044-1.244,1.802-2.27,1.802H145.93
				c-1.017,0-1.67-0.948-1.434-1.992l6.98-31.457c0.236-1.035,1.243-1.551,2.269-1.551h38.177
				C192.946,347.602,193.591,348.066,193.363,349.101z"/>
			<path style="opacity:0.4;fill:#FFFFFF;enable-background:new    ;" d="M193.363,349.101l-6.988,31.699
				c-0.228,1.044-1.244,1.802-2.27,1.802h-36.878c-1.025,0-1.67-0.948-1.443-1.992l6.989-31.457
				c0.227-1.035,1.243-1.551,2.269-1.551h36.878C192.946,347.602,193.591,348.066,193.363,349.101z"/>
			<path style="opacity:0.2;enable-background:new    ;" d="M174.541,365.213v0.01c0,2.714-2.91,4.919-5.043,4.919
				c-2.133,0-3.398-2.205-2.79-4.919c0.608-2.66,2.731-4.829,4.818-4.911c-0.608,2.714,0.695,4.911,2.819,4.911
				C174.391,365.223,174.541,365.223,174.541,365.213z"/>
		</g>
		<polygon style="fill:#EBB376;" points="166.297,412.621 178.799,414.679 184.803,415.668 186.554,409.466 181.124,407.814 
			167.859,403.778 		"/>
		<path style="fill:#263238;" d="M185.329,408.45l-2.704,6.963c-0.151,0.389,0.049,0.824,0.442,0.964l3.489,1.235
			c0,0,4.574,1.997,6.056,1.359c4.327-1.86,10.702-17.109,9.299-18.546c-0.513-0.525-1.632-0.04-2.222,0.395
			c-1.875,1.381-6.055,5.397-7.633,6.529c-1.845,1.324-4.667,0.912-5.891,0.646C185.813,407.918,185.46,408.113,185.329,408.45z"/>
		<polygon style="opacity:0.2;enable-background:new    ;" points="166.297,412.621 178.799,414.679 181.124,407.814 
			167.859,403.778 		"/>
		<path style="fill:#407BFF;" d="M178.971,406.518c0,0-50.974-28.655-68.562-27.84c-17.588,0.815-20.126,16.322-12.87,26.027
			c7.257,9.705,20.657,12.068,20.657,12.068s-9.123-12.894-7.804-16.521c1.318-3.627,6.48,1.434,6.48,1.434
			s32.068,10.357,60.12,12.733L178.971,406.518z"/>
		<g>
			<polygon style="fill:#407BFF;" points="179.792,405.73 176.907,403.792 173.2,415.179 177.652,415.179 			"/>
			<polygon style="opacity:0.6;fill:#FFFFFF;enable-background:new    ;" points="179.792,405.73 176.907,403.792 173.2,415.179 
				177.652,415.179 			"/>
		</g>
		<g>
			<path style="fill:#263238;" d="M90.289,359.905l32.47,2.98c0,0,5.09-10.54,8.99-14.65c3.89-4.12,7.36-24.97,7.36-24.97
				c-2.74-1.33-5.47-2.42-8.14-3.32c-10.35-3.51-19.74-4.15-24.84-4.18h-0.18c-2.42-0.01-3.82,0.12-3.82,0.12
				c-0.8,0.44-1.57,1.36-2.31,2.63c-3.48,6-6.25,20-7.89,30.05C90.869,355.055,90.289,359.905,90.289,359.905z"/>
			<path style="opacity:0.2;enable-background:new    ;" d="M91.929,348.565c7.16-3.28,16.93-8.83,16.42-14.46
				c-0.55-6.18-5.56-12.4-8.53-15.59C96.339,324.515,93.569,338.515,91.929,348.565z"/>
			<path style="fill:#263238;" d="M107.722,315.794c0,0,3.701,12.173,13.819,13.492s11.802-8.494,11.802-8.494
				S120.313,313.642,107.722,315.794z"/>
			<path style="opacity:0.1;fill:#FFFFFF;enable-background:new    ;" d="M107.722,315.794c0,0,3.701,12.173,13.819,13.492
				s11.802-8.494,11.802-8.494S120.313,313.642,107.722,315.794z"/>
			<path style="fill:#407BFF;" d="M109.835,316.132c0,0,4.776,11.275,13.371,11.275s8.874-6.33,8.874-6.33
				S123.483,315.44,109.835,316.132z"/>
			<path style="opacity:0.4;fill:#FFFFFF;enable-background:new    ;" d="M109.835,316.132c0,0,4.776,11.275,13.371,11.275
				s8.874-6.33,8.874-6.33S123.483,315.44,109.835,316.132z"/>
		</g>
		<path style="fill:#EBB376;" d="M125.414,317.887c0.059,2.026,1.203,2.504,1.203,2.504c0.415,3.726-2.821,4.897-4.444,4.732
			c-6.373-0.653-8.386-8.322-8.386-8.322c4.637-1.842,5.678-6.954,5.873-9.991c0.093-1.418,0-2.386,0-2.386l8.661,5.456
			c-0.865,1.448-1.476,2.705-1.935,3.792C125.63,315.528,125.389,316.894,125.414,317.887z"/>
		<path style="opacity:0.2;enable-background:new    ;" d="M127.79,309.201c-0.713,1.528-1.194,2.84-1.541,3.968
			c-0.564,1.922-0.665,3.306-0.54,4.291c-4.869,0.382-6.805-10.374-6.805-10.374l-0.042-0.062c-0.051-1.42-0.242-2.374-0.242-2.374
			L127.79,309.201z"/>
		<g>
			<path style="fill:#263238;" d="M133.333,285.176c0,0,6.354-7.319-1.253-13.451c-7.607-6.132-22.64-3.363-25.409,10.483
				c-2.769,13.846,1.052,19.697,1.052,19.697s-0.002-8.818,2.539-11.39c0,0-0.761,4.22,0,6.758c0.761,2.538,0,0.922,0,0.922
				s2.343-11.043,13.618-7.878C135.154,293.483,133.333,285.176,133.333,285.176z"/>
			<path style="fill:#EBB376;" d="M134.852,287.563c8.377,2.555,9.705,7.861,7.686,16.681c-2.523,11.022-7.252,17.956-17.023,12.458
				C112.245,309.235,120.941,283.32,134.852,287.563z"/>
			<path style="fill:#D58745;" d="M137.266,302.124c0,0,0.493,2.542,1.378,4.217c0,0-1.065,0.921-2.497,0.274L137.266,302.124z"/>
			<g>
				<path style="fill:#263238;" d="M132.348,299.875c-0.194,0.693-0.725,1.15-1.187,1.021c-0.462-0.129-0.679-0.796-0.486-1.489
					c0.194-0.693,0.725-1.15,1.187-1.021C132.324,298.516,132.542,299.182,132.348,299.875z"/>
				<path style="fill:#263238;" d="M131.66,298.366l1.672-0.17C133.333,298.197,132.228,299.255,131.66,298.366z"/>
			</g>
			<g>
				<path style="fill:#263238;" d="M141.003,302.14c-0.194,0.693-0.725,1.15-1.187,1.021c-0.462-0.129-0.68-0.796-0.486-1.489
					c0.194-0.693,0.725-1.15,1.187-1.021C140.979,300.78,141.197,301.447,141.003,302.14z"/>
				<path style="fill:#263238;" d="M140.315,300.631l1.672-0.17C141.988,300.461,140.883,301.52,140.315,300.631z"/>
			</g>
			<path style="fill:#263238;" d="M130.009,294.586c-0.117,0-0.232-0.056-0.301-0.16c-0.111-0.166-0.067-0.392,0.099-0.503
				c1.904-1.279,4.272-0.233,4.371-0.188c0.182,0.083,0.263,0.297,0.181,0.478c-0.082,0.184-0.296,0.264-0.479,0.182
				c-0.021-0.009-2.104-0.925-3.669,0.129C130.148,294.566,130.078,294.586,130.009,294.586z"/>
			<path style="fill:#263238;" d="M143.353,297.638c-0.104,0-0.208-0.045-0.28-0.132c-1.335-1.625-2.77-1.591-2.83-1.575
				c-0.193,0-0.37-0.145-0.38-0.344c-0.01-0.198,0.141-0.368,0.34-0.38c0.071-0.013,1.849-0.086,3.43,1.838
				c0.128,0.155,0.105,0.384-0.05,0.511C143.516,297.61,143.434,297.638,143.353,297.638z"/>
			<path style="fill:#263238;" d="M121.392,298.889c0,0,6.015-5.688,7.042-11.182c0,0,18.668-1.719,14.349,15.38
				c0,0,6.184-14.467-8.114-19.191c-14.275-4.717-20.661,16.36-15.139,24.905C119.53,308.801,117.656,302.454,121.392,298.889z"/>
			<path style="fill:#263238;" d="M134.216,310.394c-0.003,0-0.006,0-0.009,0c-4.096-0.097-4.62-3.896-4.625-3.935
				c-0.025-0.198,0.115-0.379,0.314-0.404c0.197-0.023,0.379,0.115,0.405,0.314c0.017,0.131,0.46,3.219,3.923,3.301
				c0.2,0.005,0.358,0.171,0.354,0.371C134.574,310.237,134.413,310.394,134.216,310.394z"/>
			<g>
				<g>
					<path style="fill:#263238;" d="M119.943,297.213c-0.032,0.11,0.026,0.221,0.132,0.272c0.018,0.009,0.038,0.016,0.06,0.021
						l8.523,1.985c-0.273,1.558,0.53,3.171,2.153,3.96c2.052,0.997,4.619,0.3,5.723-1.553c0.109-0.182,0.185-0.371,0.257-0.561
						c0.453-0.29,0.835-0.401,1.101-0.312c0.329,0.117,0.432,0.479,0.438,0.502c-0.258,1.548,0.547,3.147,2.16,3.93
						c2.052,0.997,4.619,0.3,5.723-1.553c1.104-1.853,0.332-4.171-1.719-5.168c-2.052-0.997-4.619-0.3-5.723,1.553
						c-0.109,0.183-0.185,0.373-0.258,0.563c-0.11-0.112-0.243-0.216-0.431-0.277c-0.324-0.109-0.698-0.066-1.113,0.111
						c0.272-1.557-0.532-3.169-2.154-3.957c-2.052-0.997-4.619-0.3-5.723,1.552c-0.142,0.239-0.251,0.485-0.332,0.736l-8.492-1.978
						C120.125,297.007,119.979,297.084,119.943,297.213z M139.24,300.517c0.965-1.619,3.208-2.228,5.001-1.357
						c1.793,0.871,2.467,2.897,1.502,4.516c-0.965,1.619-3.208,2.228-5.001,1.357C138.949,304.162,138.275,302.136,139.24,300.517z
						 M129.561,298.51c0.965-1.619,3.208-2.228,5.001-1.357c1.793,0.871,2.467,2.897,1.502,4.516
						c-0.965,1.619-3.208,2.228-5.001,1.357C129.27,302.156,128.596,300.13,129.561,298.51z"/>
				</g>
				<g style="opacity:0.3;enable-background:new    ;">
					<path style="fill:#FFFFFF;" d="M119.943,297.213c-0.032,0.11,0.026,0.221,0.132,0.272c0.018,0.009,0.038,0.016,0.06,0.021
						l8.523,1.985c-0.273,1.558,0.53,3.171,2.153,3.96c2.052,0.997,4.619,0.3,5.723-1.553c0.109-0.182,0.185-0.371,0.257-0.561
						c0.453-0.29,0.835-0.401,1.101-0.312c0.329,0.117,0.432,0.479,0.438,0.502c-0.258,1.548,0.547,3.147,2.16,3.93
						c2.052,0.997,4.619,0.3,5.723-1.553c1.104-1.853,0.332-4.171-1.719-5.168c-2.052-0.997-4.619-0.3-5.723,1.553
						c-0.109,0.183-0.185,0.373-0.258,0.563c-0.11-0.112-0.243-0.216-0.431-0.277c-0.324-0.109-0.698-0.066-1.113,0.111
						c0.272-1.557-0.532-3.169-2.154-3.957c-2.052-0.997-4.619-0.3-5.723,1.552c-0.142,0.239-0.251,0.485-0.332,0.736l-8.492-1.978
						C120.125,297.007,119.979,297.084,119.943,297.213z M139.24,300.517c0.965-1.619,3.208-2.228,5.001-1.357
						c1.793,0.871,2.467,2.897,1.502,4.516c-0.965,1.619-3.208,2.228-5.001,1.357C138.949,304.162,138.275,302.136,139.24,300.517z
						 M129.561,298.51c0.965-1.619,3.208-2.228,5.001-1.357c1.793,0.871,2.467,2.897,1.502,4.516
						c-0.965,1.619-3.208,2.228-5.001,1.357C129.27,302.156,128.596,300.13,129.561,298.51z"/>
				</g>
			</g>
			<path style="fill:#EBB376;" d="M122.221,301.074c0.355-1.366-0.34-4.073-2.932-4.564c-2.682-0.508-5.544,4.443,0.522,7.694
				C120.681,304.67,121.479,303.924,122.221,301.074z"/>
		</g>
		<path style="fill:#EBB376;" d="M105.945,326.824c0,0,1.064,21.374,2.863,26.162c1.799,4.788,20.689,22.489,20.689,22.489
			s5.273-1.177,6.148-0.834c0.874,0.342,5.897,4.962,5.897,4.962h-14.533l-1.267-2.246c0,0-19.546-14.476-21.693-17.927
			c-1.589-2.553-6.694-28.516-6.694-28.516L105.945,326.824z"/>
		<g>
			<path style="fill:#263238;" d="M102.129,315.885c3.389-1.767,5.042,3.907,7.066,15.379c2.024,11.473,1.693,21.949,1.693,21.949
				l2.898,5.15l-7.314,6.74c0,0-5.452-4.983-7.714-11.889C96.496,346.307,90.269,322.066,102.129,315.885z"/>
			<path style="opacity:0.1;fill:#FFFFFF;enable-background:new    ;" d="M102.129,315.885c3.389-1.767,5.042,3.907,7.066,15.379
				c2.024,11.473,1.693,21.949,1.693,21.949l2.898,5.15l-7.314,6.74c0,0-5.452-4.983-7.714-11.889
				C96.496,346.307,90.269,322.066,102.129,315.885z"/>
			<g>
				<polygon style="fill:#407BFF;" points="104.556,365.102 113.787,356.846 115.967,359.904 107.722,368.001 				"/>
				<polygon style="opacity:0.4;fill:#FFFFFF;enable-background:new    ;" points="104.556,365.102 113.787,356.846 
					115.967,359.904 107.722,368.001 				"/>
			</g>
		</g>
	</g>
</g>
</svg>
